<?xml version="1.0" standalone="no"?>
<!DOCTYPE svg PUBLIC "-//W3C//DTD SVG 20010904//EN"
 "http://www.w3.org/TR/2001/REC-SVG-20010904/DTD/svg10.dtd">
<svg version="1.0" xmlns="http://www.w3.org/2000/svg"
 width="44.000000pt" height="40.000000pt" viewBox="0 0 44.000000 40.000000"
 preserveAspectRatio="xMidYMid meet">

<g transform="translate(0.000000,40.000000) scale(0.100000,-0.100000)"
fill="#000000" stroke="none">
<path d="M112 292 c-56 -53 -102 -100 -102 -104 0 -19 24 -2 116 81 l98 89 98
-90 c58 -54 102 -88 107 -82 8 8 -191 204 -207 204 -4 -1 -53 -44 -110 -98z"/>
<path d="M60 105 l0 -95 65 0 65 0 0 50 c0 49 1 50 30 50 29 0 30 -1 30 -50
l0 -51 68 3 67 3 0 89 c0 63 -4 91 -12 94 -10 3 -13 -18 -13 -82 l0 -86 -40 0
-40 0 0 50 0 50 -55 0 -55 0 0 -50 0 -50 -40 0 -40 0 0 85 c0 69 -3 85 -15 85
-12 0 -15 -17 -15 -95z"/>
</g>
</svg>
