<svg xmlns="http://www.w3.org/2000/svg" width="114" height="24" viewBox="0 0 114 24"><g><g><path fill="#171717" d="M15.158 8.749c1.35 6.167-3.242 10.798-9.347 9.416-2.536-.574-4.536-2.59-5.106-5.143-1.373-6.15 3.222-10.776 9.344-9.418 2.542.564 4.549 2.584 5.109 5.145zm-2.334 2.125c0-3.055-2.008-5.188-4.884-5.188-2.89 0-4.91 2.134-4.91 5.19.001 3.055 2.02 5.188 4.912 5.187 2.875 0 4.883-2.134 4.882-5.189zm19.99-1.132l.002 8.53-2.544.001V9.93c-.001-2.743-1.348-4.193-3.897-4.192-2.874 0-4.59 1.789-4.589 4.785l.001 7.751h-2.544l-.002-14.802h2.464v1.932c1.153-1.323 2.897-2.04 5.017-2.04 3.815 0 6.092 2.384 6.093 6.378zm19.217 1.127c0 4.367-3.078 7.536-7.32 7.537-2.04 0-3.789-.758-5.017-2.154l.001 7.239h-2.544L37.15 3.47h2.463v2.12c1.225-1.445 3-2.228 5.097-2.229 4.242 0 7.321 3.157 7.322 7.508zm-2.544 0c0-3.006-2.066-5.188-4.91-5.187-2.892 0-4.91 2.134-4.91 5.189s2.02 5.188 4.91 5.187c2.892 0 4.91-2.134 4.91-5.189zm33.801-7.392l.002 14.803h-2.544l-.002-14.802zm18.387 6.27l.001 8.53h-2.544V9.936c-.001-2.743-1.348-4.193-3.897-4.193-2.874 0-4.589 1.79-4.589 4.786l.001 7.75-2.543.001-.002-14.802h2.463v1.932c1.154-1.323 2.898-2.04 5.017-2.04 3.815-.001 6.092 2.383 6.093 6.377zm11.839 7.291l-.183.165c-.758.682-1.912 1.073-3.166 1.073-2.806 0-4.416-1.61-4.416-4.42l-.001-8.185V.335h2.533v3.077h4.252V5.67l-4.251.001.001 8.077c0 1.489.705 2.244 2.095 2.243.732 0 1.408-.232 1.855-.638l.318-.289zm-37.373-6.12c.001 5.945-4.273 10.213-10.098 10.214-5.826.001-10.138-4.266-10.14-10.21C55.904 4.976 60.216.746 66.04.745c5.825 0 10.1 4.228 10.101 10.173zm-4.151 3.277l-.001-6.514c0-.75-.604-1.358-1.349-1.358l-9.237.001c-.744 0-1.348.609-1.348 1.359l.001 6.563c0 .723.582 1.31 1.3 1.31l9.286-.002c.744 0 1.348-.608 1.348-1.359z"/></g></g></svg>